<?xml version="1.0" standalone="no"?>
<!DOCTYPE svg PUBLIC "-//W3C//DTD SVG 20010904//EN"
 "http://www.w3.org/TR/2001/REC-SVG-20010904/DTD/svg10.dtd">
<svg version="1.0" xmlns="http://www.w3.org/2000/svg"
 viewBox="312 244 416 416"
 preserveAspectRatio="xMidYMid meet">

<g transform="translate(0.000000,1024.000000) scale(0.100000,-0.100000)"
fill="#FFFFFF" stroke="none">
<path d="M6179 7669 c-59 -42 -162 -143 -205 -201 -30 -40 -34 -53 -29 -80 l7
-31 -86 6 c-186 15 -471 65 -643 113 l-92 26 -93 -31 c-159 -52 -316 -87 -527
-116 -58 -8 -107 -15 -109 -15 -3 0 -2 20 1 44 6 38 2 50 -24 87 -49 69 -201
219 -223 219 -19 0 -272 -132 -292 -153 -6 -7 -31 -61 -54 -122 -23 -60 -47
-115 -53 -122 -7 -6 -91 -32 -187 -58 -96 -25 -183 -48 -192 -51 -21 -6 -24
-24 -43 -199 -36 -351 -42 -768 -14 -1022 44 -405 187 -738 472 -1097 104
-130 387 -413 547 -546 214 -178 667 -505 789 -570 22 -11 36 -4 199 106 650
440 1142 894 1430 1321 104 153 206 382 255 569 95 360 99 904 11 1337 -13 64
-28 126 -33 136 -10 18 -55 30 -292 76 l-87 17 -43 122 -44 121 -145 72 c-80
39 -148 72 -151 72 -3 1 -26 -13 -50 -30z m-2004 -9 c9 -14 -13 -51 -49 -82
-66 -58 -73 -13 -8 55 38 39 47 43 57 27z m2087 -7 c16 -18 48 -77 48 -88 0
-7 -81 34 -102 52 -23 20 -41 9 -119 -74 -40 -42 -74 -91 -89 -126 -26 -59
-40 -72 -40 -36 0 30 16 56 79 128 69 79 166 161 190 161 10 0 25 -8 33 -17z
m-1979 -111 c110 -123 116 -132 107 -157 -6 -19 -8 -18 -20 5 -7 14 -38 57
-69 95 -99 123 -123 155 -114 155 4 0 48 -44 96 -98z m-81 -130 c45 -91 49
-87 -101 -97 l-103 -8 13 24 c31 60 66 103 103 129 23 16 43 29 46 29 3 0 22
-35 42 -77z m2091 59 c17 -7 27 -18 27 -31 0 -11 11 -38 25 -60 14 -22 25 -42
25 -45 0 -8 -223 6 -232 14 -4 3 12 36 35 74 45 72 50 74 120 48z m-1089 -156
c80 -35 257 -81 427 -110 157 -26 351 -45 734 -70 185 -12 271 -23 375 -46 74
-16 138 -33 142 -37 10 -11 37 -173 53 -329 17 -162 19 -453 4 -591 -43 -400
-188 -746 -449 -1077 -81 -103 -356 -377 -485 -484 -145 -120 -355 -278 -508
-379 -168 -113 -326 -212 -336 -212 -5 0 -82 49 -172 108 -176 116 -368 259
-514 380 -118 99 -424 406 -504 505 -198 245 -349 540 -411 802 -67 279 -78
728 -29 1151 l12 102 126 40 c116 36 141 41 306 52 337 21 599 53 790 96 115
25 302 85 345 109 32 19 29 19 94 -10z"/><path d="M4298 7043 l-37 -4 -3 -105 -3 -104 -95 61 c-147 95 -191 118 -237
120 -23 2 -44 1 -46 -2 -15 -18 -97 -198 -97 -213 0 -16 -5 -18 -44 -13 l-44
6 -73 -132 -74 -132 0 -215 c1 -118 7 -255 14 -305 35 -252 137 -517 247 -643
26 -29 48 -51 50 -49 2 2 -5 26 -16 54 -43 115 -89 354 -90 470 l0 42 36 -6
35 -6 -7 38 c-7 37 -5 38 97 141 93 93 104 101 115 85 7 -9 32 -23 56 -30 24
-7 73 -29 111 -48 l67 -35 0 -99 0 -99 -68 0 c-38 0 -102 -3 -143 -6 l-74 -7
-65 -106 c-72 -117 -77 -130 -60 -141 9 -6 9 -12 -1 -28 -11 -17 -9 -37 9
-124 19 -87 28 -108 56 -138 18 -19 66 -80 107 -135 86 -118 152 -190 234
-255 61 -48 123 -85 131 -77 3 2 -25 39 -62 82 -36 43 -77 97 -92 119 -25 40
-92 189 -92 206 0 5 16 6 35 3 19 -3 35 -3 35 0 0 2 -17 31 -39 63 -46 71 -58
104 -71 208 -9 76 -9 81 15 121 25 44 49 55 120 55 l32 0 12 -92 c18 -132 66
-368 95 -469 109 -375 384 -753 718 -988 l46 -33 84 54 c312 205 605 597 727
972 42 127 82 308 101 456 6 47 14 88 18 91 14 12 132 50 141 45 4 -3 25 -30
46 -61 21 -30 43 -55 49 -55 6 0 1 -8 -10 -18 -17 -13 -24 -36 -33 -97 -8 -58
-23 -103 -53 -165 -23 -47 -44 -89 -46 -94 -3 -5 12 -6 32 -2 26 5 36 3 36 -6
0 -35 -76 -178 -153 -291 -47 -70 -83 -127 -79 -127 14 0 96 56 144 99 79 70
243 289 308 411 17 32 58 239 55 280 -1 19 -25 80 -52 135 l-51 101 -114 13
c-63 7 -135 10 -161 6 l-47 -7 0 68 c0 117 -18 98 241 247 l46 27 79 -63 c44
-34 92 -72 107 -84 l28 -22 -16 -56 c-9 -31 -14 -59 -11 -62 3 -4 23 -1 43 5
20 6 38 10 40 8 6 -6 -26 -235 -46 -321 -11 -50 -36 -137 -56 -194 -20 -57
-33 -106 -30 -110 19 -18 155 197 215 342 94 224 124 395 125 697 l0 215 -72
124 c-40 69 -73 129 -73 134 0 5 -21 6 -47 3 l-48 -5 -49 99 c-54 112 -50 110
-155 84 -56 -15 -121 -47 -263 -133 l-38 -23 0 115 0 114 -37 7 c-21 3 -50 6
-65 6 l-28 0 0 -395 c0 -217 -5 -486 -11 -598 -11 -220 -8 -207 -90 -352 l-34
-60 -1 -210 c-1 -235 -5 -253 -99 -466 -107 -245 -299 -493 -495 -640 -93 -70
-89 -70 -170 -5 -78 64 -197 195 -272 301 -186 263 -281 567 -303 965 -6 113
-7 117 -57 219 l-52 104 1 573 0 574 -26 -2 c-14 -1 -43 -3 -63 -5z m-218
-123 c135 -84 145 -94 60 -59 -41 16 -86 41 -100 54 -35 33 -40 31 -28 -9 6
-19 8 -40 6 -48 -3 -7 -36 -23 -74 -35 -102 -31 -124 -35 -124 -22 0 16 80
162 94 171 29 19 75 5 166 -52z m2455 -62 c22 -42 38 -79 34 -82 -3 -3 -45 10
-95 28 -81 30 -89 35 -89 60 1 14 -4 26 -10 26 -5 0 -52 -18 -104 -40 -51 -23
-95 -39 -97 -37 -2 2 35 27 84 56 62 37 95 51 115 48 15 -2 27 0 27 4 0 8 43
17 75 15 13 -1 31 -24 60 -78z m-2723 -134 c15 -8 34 -24 43 -37 39 -55 75
-113 75 -121 0 -4 -11 -22 -25 -38 -14 -17 -68 -118 -120 -224 -53 -107 -99
-194 -104 -194 -11 0 -57 192 -76 317 l-15 102 62 111 61 110 36 -6 c20 -4 48
-13 63 -20z m2921 -90 l58 -105 -16 -107 c-18 -119 -74 -334 -84 -327 -4 2
-31 62 -60 134 -29 71 -77 174 -107 228 -61 109 -61 94 2 193 28 45 43 58 82
72 26 9 52 17 57 17 6 0 36 -47 68 -105z m-2629 35 c50 -28 106 -62 124 -76
l33 -25 -2 -171 c-2 -95 -4 -175 -6 -179 -2 -3 -45 12 -96 35 -121 54 -151 54
-245 -2 -41 -23 -75 -41 -77 -39 -2 2 12 39 31 83 60 136 94 228 94 255 -1 14
-14 40 -30 59 -30 36 -31 51 -1 51 9 0 30 14 46 30 16 17 31 30 33 30 2 0 45
-23 96 -51z m2344 -6 l44 -8 -36 -47 c-20 -26 -36 -54 -36 -64 0 -9 34 -89 76
-176 42 -88 74 -161 72 -163 -2 -3 -55 16 -117 41 l-114 46 -118 -48 c-66 -26
-120 -45 -122 -43 -2 2 -2 68 1 147 l4 143 126 103 c120 100 126 103 151 90
14 -7 46 -17 69 -21z m-17 -427 c47 -22 50 -24 19 -19 -19 3 -50 12 -68 19
-28 11 -42 11 -93 -2 -34 -9 -63 -14 -65 -11 -9 9 102 46 127 42 14 -2 50 -15
80 -29z m-2371 -464 c-38 -19 -41 -34 -19 -89 9 -23 10 -40 3 -60 -9 -27 -13
-28 -83 -31 l-73 -3 27 43 c14 24 38 66 52 95 28 54 28 54 113 61 8 0 -1 -7
-20 -16z m2243 1 c15 -3 30 -10 33 -15 13 -21 -6 -18 -53 7 -26 14 -39 23 -28
20 11 -4 32 -9 48 -12z m114 -73 c13 -36 28 -69 33 -74 6 -6 10 -16 10 -23 0
-19 -80 -17 -109 3 -20 15 -23 23 -19 65 5 50 32 103 50 97 6 -2 21 -33 35
-68z m60 -163 c1 -2 -11 -46 -28 -97 -30 -91 -66 -156 -107 -193 -22 -20 -19
-41 -36 242 l-4 64 86 -7 c47 -3 87 -8 89 -9z m-2420 -148 c-3 -83 -8 -153
-11 -156 -8 -8 -114 76 -120 95 -14 45 -46 179 -46 195 0 15 11 17 92 17 l91
0 -6 -151z"/></g></svg>